<svg viewBox="0 0 1017 250" xmlns="http://www.w3.org/2000/svg" fill-rule="evenodd" clip-rule="evenodd" stroke-linejoin="round" stroke-miterlimit="2"><path fill="none" d="M0 0h1017v300H0z"/><path d="M138.742 15l52.239 39.099-.068-20.715 26.993.04.05 40.637 48.83 36.078-40.11.202.164 99.468-104.253-.04c-6.429 1.36-8.68 1.54-17.25 2.77-2.976.426-19.046 2.33-26.228 1.173 39.565-5.324 75.727-16.526 108.553-42.289 12.247-9.613 12.348-20.35 12.045-20.658-8.743 12.864-49.78 31.995-78.686 40.317-15.577 4.481-48.673 6.969-65.665 4.476-13.712-2.01-33.865-10.748-36.01-21.22 4.172 4.677 22.534 14.397 28.222 12.96l.13-77.08-37.696.005L138.742 15zm805.083 213.673c0 7.7-3.85 11.55-11.55 11.55H920.55v-88.55c1.225-27.65 15.575-41.3 43.4-41.3 28.7 0 43.05 15.576 43.05 46.726 0 31.5-12.25 47.774-36.926 48.65-11.55 0-20.3-4.726-26.25-14.35v37.274zm19.774-43.75c12.6 0 19.075-8.924 19.6-26.774 0-18.725-6.65-28-19.95-28-13.3 0-19.6 9.275-19.424 28 .7 17.85 7.174 26.774 19.774 26.774zm-89.621 1.925c-7.35 0-11.2-3.5-11.725-10.85 0-6.824 4.725-11.2 14-12.95 6.825-1.4 13.124-3.324 18.55-5.6v8.576c0 13.125-7.876 20.824-20.825 20.824zm5.425-57.75c9.624 0 14.524 2.626 15.05 7.876 0 5.075-5.076 8.05-15.05 9.275-23.45 2.275-39.55 8.225-40.075 30.45 0 20.474 15.4 30.8 37.625 29.05 25.024-1.75 40.424-13.126 40.424-38.675v-31.5c-.525-17.15-13.475-25.55-39.024-25.55-21.35 0-33.425 8.4-36.225 25.55h23.275c1.225-4.375 5.775-6.475 14-6.475zm-84.353 57.75c-7.35 0-11.2-3.5-11.724-10.85 0-6.824 4.725-11.2 14-12.95 6.825-1.4 13.125-3.324 18.55-5.6v8.576c0 13.125-7.875 20.824-20.825 20.824zm5.426-57.75c9.625 0 14.525 2.626 15.05 7.876 0 5.075-5.075 8.05-15.05 9.275-23.45 2.275-39.55 8.225-40.075 30.45 0 20.474 15.4 30.8 37.625 29.05 25.024-1.75 40.424-13.126 40.424-38.675v-31.5c-.525-17.15-13.475-25.55-39.024-25.55-21.35 0-33.425 8.4-36.225 25.55h23.275c1.225-4.375 5.775-6.475 14-6.475zm-53.867-44.099h-12.075v119h23.275V96.373c0-6.125-5.075-11.375-11.2-11.375zm-75.283 88.55h-23.8c0 10.674 3.5 18.724 10.5 23.974 6.3 5.425 16.1 8.225 29.05 8.225 24.5 0 42.35-8.4 42.35-31.15 0-6.3-2.1-11.9-6.475-16.45-5.075-4.724-15.4-8.75-31.15-11.9-12.075-2.274-18.025-5.95-18.025-10.674 0-4.725 4.55-7.175 13.65-7.175 7.7 0 12.425 2.275 14 6.3 1.4 3.675 4.9 5.6 10.325 5.775h14.7c-.525-9.625-4.2-17.15-11.025-22.575-7-5.25-16.45-7.875-28.35-7.875-21.175.35-36.925 9.8-36.925 29.75.175 14.525 10.675 23.625 31.15 27.3 15.925 2.8 23.975 6.65 23.975 11.375 0 5.95-4.9 8.75-14.7 8.75-11.375 0-18.725-3.5-19.25-13.65z" fill="#ec772d" fill-rule="nonzero"/><path d="M643.9 175.649h-17.15c-3.15 0-5.775 1.05-7.875 3.325-4.55 4.374-9.625 6.65-15.05 6.65-11.375 0-17.5-7.175-18.375-21.35h59.85c1.75-36.225-12.075-54.25-41.475-54.25-28.175.175-42.35 15.925-42.35 47.425 0 31.5 14 47.774 42 48.65 22.75 0 35.35-10.85 40.425-30.45zm-40.425-46.55c9.975 0 15.75 6.3 17.15 18.55H585.8c1.75-12.25 7.7-18.55 17.675-18.55z" fill="#5a5b5d" fill-rule="nonzero"/><path d="M500.908 84.999h-12.075v119h23.275v-33.775c0-2.45 1.225-4.025 3.675-4.55 2.975 0 5.95 2.625 8.925 7.875l16.45 30.45h28l-32.375-54.95 32.025-34.3h-28l-28.7 32.9V96.374c0-6.125-5.075-11.375-11.2-11.375zm-87.43 0h-12.075v119h23.275v-33.775c0-2.45 1.225-4.025 3.675-4.55 2.975 0 5.95 2.625 8.925 7.875l16.45 30.45h28l-32.375-54.95 32.025-34.3h-28l-28.7 32.9V96.374c0-6.125-5.075-11.375-11.2-11.375zm-17.772 90.65h-17.15c-3.15 0-5.775 1.05-7.875 3.325-4.55 4.374-9.625 6.65-15.05 6.65-11.375 0-17.5-7.175-18.375-21.35h59.85c1.75-36.225-12.075-54.25-41.475-54.25-28.175.175-42.35 15.925-42.35 47.425 0 31.5 14 47.774 42 48.65 22.75 0 35.35-10.85 40.425-30.45zm-40.425-46.55c9.975 0 15.75 6.3 17.15 18.55h-34.825c1.75-12.25 7.7-18.55 17.675-18.55zm-59.101-44.1h-12.076v119h23.275V96.373c0-6.125-5.075-11.375-11.2-11.375z" fill="#5a5b5d" fill-rule="nonzero"/></svg>